<svg xmlns="http://www.w3.org/2000/svg" width="1600" height="460" viewBox="0 0 1600 460" role="img" aria-labelledby="title desc">
  <title id="title">Ravel abstract banner</title>
  <desc id="desc">Abstract woven ribbons in warm earth tones for the Ravel project.</desc>
  <defs>
    <linearGradient id="bg" x1="0%" x2="100%" y1="0%" y2="100%">
      <stop offset="0%" stop-color="#fbf6ee"/>
      <stop offset="55%" stop-color="#f6efe1"/>
      <stop offset="100%" stop-color="#f1e4d2"/>
    </linearGradient>
    <linearGradient id="sea" x1="0%" x2="100%" y1="0%" y2="0%">
      <stop offset="0%" stop-color="#244b4a"/>
      <stop offset="100%" stop-color="#3f7371"/>
    </linearGradient>
    <linearGradient id="clay" x1="0%" x2="100%" y1="0%" y2="0%">
      <stop offset="0%" stop-color="#8c4f2d"/>
      <stop offset="100%" stop-color="#b97a4d"/>
    </linearGradient>
    <linearGradient id="sand" x1="0%" x2="100%" y1="0%" y2="0%">
      <stop offset="0%" stop-color="#d9be9c"/>
      <stop offset="100%" stop-color="#edd7bb"/>
    </linearGradient>
    <filter id="shadow" x="-20%" y="-20%" width="140%" height="140%">
      <feDropShadow dx="0" dy="18" stdDeviation="18" flood-color="#8d775d" flood-opacity="0.15"/>
    </filter>
  </defs>

  <rect width="1600" height="460" rx="40" fill="url(#bg)"/>
  <g opacity="0.45">
    <circle cx="132" cy="116" r="4" fill="#d2b995"/>
    <circle cx="148" cy="116" r="4" fill="#d2b995"/>
    <circle cx="164" cy="116" r="4" fill="#d2b995"/>
    <circle cx="132" cy="132" r="4" fill="#d2b995"/>
    <circle cx="148" cy="132" r="4" fill="#d2b995"/>
    <circle cx="164" cy="132" r="4" fill="#d2b995"/>
    <circle cx="1436" cy="330" r="4" fill="#d2b995"/>
    <circle cx="1452" cy="330" r="4" fill="#d2b995"/>
    <circle cx="1468" cy="330" r="4" fill="#d2b995"/>
    <circle cx="1436" cy="346" r="4" fill="#d2b995"/>
    <circle cx="1452" cy="346" r="4" fill="#d2b995"/>
    <circle cx="1468" cy="346" r="4" fill="#d2b995"/>
  </g>

  <g filter="url(#shadow)">
    <path d="M-60 298C82 208 214 188 336 214C476 244 624 252 780 204C930 158 1064 148 1184 178C1314 210 1454 262 1660 222L1660 328C1456 360 1306 362 1186 338C1062 314 930 296 780 320C612 346 456 350 316 328C190 308 74 312 -60 378Z" fill="url(#sea)"/>
    <path d="M-60 246C82 156 230 132 370 162C524 194 654 198 788 154C936 106 1078 102 1206 136C1340 170 1468 230 1660 184L1660 248C1478 282 1338 292 1214 274C1084 256 944 252 790 290C640 328 500 334 366 308C230 282 88 282 -60 334Z" fill="url(#sand)"/>
    <path d="M-60 196C110 116 250 96 382 124C516 152 650 154 794 106C958 50 1094 52 1208 96C1320 140 1464 198 1660 154L1660 214C1476 248 1336 256 1214 236C1098 218 958 220 798 266C646 310 496 314 362 286C222 258 84 248 -60 294Z" fill="url(#clay)"/>
  </g>

  <g transform="translate(118,86)">
    <rect width="192" height="192" rx="44" fill="#fffaf2" stroke="#d7c2a5" stroke-width="2"/>
    <path d="M28 122C58 86 90 72 124 74C152 76 178 92 204 122" fill="none" stroke="#2c5f5d" stroke-width="18" stroke-linecap="round"/>
    <path d="M16 92C52 56 88 40 126 42C162 44 196 62 232 96" fill="none" stroke="#b16a3d" stroke-width="14" stroke-linecap="round" opacity="0.95"/>
    <path d="M34 154C64 130 94 118 126 120C154 122 182 136 208 158" fill="none" stroke="#d7bb95" stroke-width="10" stroke-linecap="round"/>
    <circle cx="56" cy="42" r="7" fill="#2c5f5d" opacity="0.25"/>
    <circle cx="188" cy="164" r="7" fill="#8c4f2d" opacity="0.22"/>
  </g>

  <g opacity="0.25">
    <path d="M390 120H1460" stroke="#d6c4ab" stroke-width="2"/>
    <path d="M390 230H1460" stroke="#d6c4ab" stroke-width="2"/>
    <path d="M390 340H1460" stroke="#d6c4ab" stroke-width="2"/>
  </g>
</svg>
